{"accessors":[{"bufferView":0,"byteOffset":0,"componentType":5126,"count":9001,"max":[4.373337652980192e+15,8.802116544136128e+15,4.15455427705432e+15],"min":[-5.281289554681728e+15,-3.115147653340288e+15,-4.402355787170544e+15],"type":"VEC3"},{"bufferView":1,"byteOffset":0,"componentType":5125,"count":50100,"type":"SCALAR"},{"bufferView":2,"byteOffset":0,"componentType":5126,"count":6778,"max":[3.79926086174816e+15,7.894240576341248e+15,3.386166867851936e+15],"min":[-4.629567535899392e+15,-2.489277973362656e+15,-3.42505164826656e+15],"type":"VEC3"},{"bufferView":3,"byteOffset":0,"componentType":5125,"count":36612,"type":"SCALAR"},{"bufferView":4,"byteOffset":0,"componentType":5126,"count":3105,"max":[2.883800043654464e+15,4.528144779536496e+15,2.41454346520272e+15],"min":[-2.25768701063908e+15,-1.794119542409848e+15,-1.830500051185008e+15],"type":"VEC3"},{"bufferView":5,"byteOffset":0,"componentType":5125,"count":15708,"type":"SCALAR"},{"bufferView":6,"byteOffset":0,"componentType":5126,"count":1245,"max":[2.21992263246668e+15,2.4931870757224e+15,1.319749282243536e+15],"min":[-1.04296667144436e+15,-1.013296667744304e+15,-1.416333618573336e+15],"type":"VEC3"},{"bufferView":7,"byteOffset":0,"componentType":5125,"count":4968,"type":"SCALAR"}],"asset":{"generator":"VTK","version":"2.0"},"bufferViews":[{"buffer":0,"byteLength":108012,"byteOffset":0,"target":34962},{"buffer":1,"byteLength":200400,"byteOffset":0,"target":34963},{"buffer":2,"byteLength":81336,"byteOffset":0,"target":34962},{"buffer":3,"byteLength":146448,"byteOffset":0,"target":34963},{"buffer":4,"byteLength":37260,"byteOffset":0,"target":34962},{"buffer":5,"byteLength":62832,"byteOffset":0,"target":34963},{"buffer":6,"byteLength":14940,"byteOffset":0,"target":34962},{"buffer":7,"byteLength":19872,"byteOffset":0,"target":34963}],"buffers":[{"byteLength":108012,"uri":"data:application/octet-stream;base64,"},{"byteLength":200400,"uri":"data:application/octet-stream;base64,"},{"byteLength":81336,"uri":"data:application/octet-stream;base64,"},{"byteLength":146448,"uri":"data:application/octet-stream;base64,"},{"byteLength":37260,"uri":"data:application/octet-stream;base64,"},{"byteLength":62832,"uri":"data:application/octet-stream;base64,"},{"byteLength":14940,"uri":"data:application/octet-stream;base64,"},{"byteLength":19872,"uri":"data:application/octet-stream;base64,"}],"cameras":[{"perspective":{"aspectRatio":1.2952503209242618,"yfov":0.5235987755982988,"zfar":4.567647514187913e+16,"znear":1.408374286765105e+16},"type":"perspective"}],"materials":[{"pbrMetallicRoughness":{"baseColorFactor":[0.0,1.0,1.0,0.3],"metallicFactor":0.0,"roughnessFactor":1.0}},{"pbrMetallicRoughness":{"baseColorFactor":[1.0,0.0,1.0,0.3],"metallicFactor":0.0,"roughnessFactor":1.0}},{"pbrMetallicRoughness":{"baseColorFactor":[1.0,0.0,0.0,0.5],"metallicFactor":0.0,"roughnessFactor":1.0}},{"pbrMetallicRoughness":{"baseColorFactor":[0.0,0.0,1.0,1.0],"metallicFactor":0.0,"roughnessFactor":1.0}}],"meshes":[{"name":"mesh0","primitives":[{"attributes":{"POSITION":0},"indices":1,"material":0,"mode":4}]},{"name":"mesh1","primitives":[{"attributes":{"POSITION":2},"indices":3,"material":1,"mode":4}]},{"name":"mesh2","primitives":[{"attributes":{"POSITION":4},"indices":5,"material":2,"mode":4}]},{"name":"mesh3","primitives":[{"attributes":{"POSITION":6},"indices":7,"material":3,"mode":4}]}],"nodes":[{"mesh":0,"name":"mesh0"},{"mesh":1,"name":"mesh1"},{"mesh":2,"name":"mesh2"},{"mesh":3,"name":"mesh3"},{"camera":0,"matrix":[0.5647309098847468,-0.3617825349417892,-0.7417495512852293,0.0,0.28243701869550986,0.9292423657763371,-0.23819730501579656,0.0,0.7754407326747405,-0.07498015109006703,0.6269526673133887,-0.0,2.1289652647356232e+16,741014857662565.8,1.7456070701555598e+16,1.0],"name":"Camera Node"},{"children":[0,1,2,3,4],"name":"Renderer Node"}],"scene":0,"scenes":[{"name":"Layer 0","nodes":[5]}]}